<?xml version="1.0" encoding="UTF-8" standalone="no"?>
<!-- Created with Inkscape (http://www.inkscape.org/) -->

<svg
   xmlns:dc="http://purl.org/dc/elements/1.1/"
   xmlns:cc="http://creativecommons.org/ns#"
   xmlns:rdf="http://www.w3.org/1999/02/22-rdf-syntax-ns#"
   xmlns:svg="http://www.w3.org/2000/svg"
   xmlns="http://www.w3.org/2000/svg"
   xmlns:sodipodi="http://sodipodi.sourceforge.net/DTD/sodipodi-0.dtd"
   xmlns:inkscape="http://www.inkscape.org/namespaces/inkscape"
   width="210mm"
   height="297mm"
   viewBox="0 0 210 297"
   version="1.1"
   id="svg8"
   inkscape:version="0.92.2 5c3e80d, 2017-08-06"
   sodipodi:docname="dibujo.svg">
  <defs
     id="defs2" />
  <sodipodi:namedview
     id="base"
     pagecolor="#ffffff"
     bordercolor="#666666"
     borderopacity="1.0"
     inkscape:pageopacity="0.0"
     inkscape:pageshadow="2"
     inkscape:zoom="0.35"
     inkscape:cx="-282.85714"
     inkscape:cy="554.28571"
     inkscape:document-units="mm"
     inkscape:current-layer="layer1"
     showgrid="false"
     inkscape:window-width="1366"
     inkscape:window-height="704"
     inkscape:window-x="0"
     inkscape:window-y="27"
     inkscape:window-maximized="1" />
  <metadata
     id="metadata5">
    <rdf:RDF>
      <cc:Work
         rdf:about="">
        <dc:format>image/svg+xml</dc:format>
        <dc:type
           rdf:resource="http://purl.org/dc/dcmitype/StillImage" />
        <dc:title></dc:title>
      </cc:Work>
    </rdf:RDF>
  </metadata>
  <g
     inkscape:label="Capa 1"
     inkscape:groupmode="layer"
     id="layer1">
    <path
       style="fill:#ff0000;stroke-width:0.28222221"
       d="m 91.593235,214.7469 c -13.691754,-1.33128 -27.67325,-6.99811 -38.33387,-15.53708 -9.36964,-7.50492 -17.62159,-18.51613 -21.87511,-29.18966 -2.12888,-5.34208 -4.08097,-12.6834 -4.84035,-18.20333 -0.55209,-4.0131 -0.47109,-14.84812 0.14202,-18.99843 1.5392,-10.41921 5.71776,-21.33794 11.42049,-29.84216 10.75278,-16.035122 26.42157,-26.701555 45.342093,-30.866339 5.237979,-1.152984 8.094884,-1.423331 14.966413,-1.416261 7.339689,0.0075 10.841099,0.413854 16.950749,1.966963 5.75277,1.462386 9.4854,2.812397 14.37592,5.199453 21.6929,10.588294 36.43024,30.807454 40.1233,55.047884 0.68855,4.51949 0.69093,15.20885 0.004,19.75555 -2.78272,18.42918 -12.31314,35.118 -26.58104,46.54633 -9.6883,7.76016 -22.37092,13.26189 -34.85444,15.11989 -3.5509,0.52851 -13.229751,0.76828 -16.840575,0.41719 z m 15.133135,-9.76077 c 13.4127,-1.78028 26.06408,-8.0908 35.86057,-17.88728 9.82496,-9.82497 16.14054,-22.52954 17.92128,-36.05091 0.58036,-4.4067 0.57274,-12.51304 -0.0157,-16.72599 -1.90174,-13.61493 -8.11904,-26.06282 -17.90558,-35.849364 -8.20269,-8.202688 -17.71791,-13.636688 -28.89448,-16.501201 -5.39334,-1.382293 -9.33996,-1.857831 -15.418651,-1.857831 -10.644897,0 -19.375565,2.118587 -28.786664,6.985382 -11.72717,6.06451 -20.93546,15.277964 -26.93693,26.952014 -4.8411,9.41692 -6.95552,18.15202 -6.95552,28.73477 0,6.06913 0.47489,9.99565 1.86479,15.41865 2.86451,11.17657 8.29851,20.69179 16.5012,28.89448 8.01781,8.01781 17.46811,13.47133 28.367569,16.37018 7.859426,2.09031 16.18105,2.60776 24.398116,1.5171 z M 96.107667,175.649 c -0.492881,-0.2518 -1.108205,-0.69214 -1.367389,-0.97853 -1.165434,-1.28779 -1.23895,-2.16101 -1.251859,-14.86989 l -0.01239,-12.19513 -12.629443,-0.0815 c -14.003591,-0.0904 -13.698651,-0.0503 -15.076631,-1.98228 -0.94035,-1.31839 -0.94035,-4.19346 0,-5.51185 1.37788,-1.93182 1.07427,-1.89187 15.06568,-1.98225 l 12.618494,-0.0815 0.08151,-12.61849 c 0.09037,-13.99142 0.05043,-13.68781 1.982247,-15.06569 0.737836,-0.52627 1.287074,-0.65725 2.755925,-0.65725 1.468851,0 2.018089,0.13098 2.755929,0.65725 1.93182,1.37788 1.89187,1.07427 1.98224,15.06569 l 0.0815,12.61849 12.6185,0.0815 c 13.99141,0.0904 13.6878,0.0504 15.06568,1.98225 0.52627,0.73784 0.65725,1.28708 0.65725,2.75593 0,1.46885 -0.13098,2.01809 -0.65725,2.75592 -1.37788,1.93182 -1.07427,1.89188 -15.06568,1.98225 l -12.6185,0.0815 -0.0815,12.6185 c -0.0903,13.9753 -0.0532,13.69096 -1.96379,15.05145 -1.174611,0.83639 -3.665922,1.02482 -4.940522,0.37366 z"
       id="path884"
       inkscape:connector-curvature="0" />
  </g>
</svg>
